Coordinates
version=1
nRows=12
nColumns=24
inDegrees=yes

Units are S.I. units (second, meters, Newtons, ...)
Angles are in degrees.

endheader
time	pelvis_tilt	pelvis_list	pelvis_rotation	pelvis_tx	pelvis_ty	pelvis_tz	hip_flexion_r	hip_adduction_r	hip_rotation_r	knee_angle_r	ankle_angle_r	subtalar_angle_r	mtp_angle_r	hip_flexion_l	hip_adduction_l	hip_rotation_l	knee_angle_l	ankle_angle_l	subtalar_angle_l	mtp_angle_l	lumbar_extension	lumbar_bending	lumbar_rotation
      0.50800000	     -1.49438488	     -0.60613452	      6.15524510	     -0.71019261	      0.89061463	      0.29032639	     25.77383270	      0.25966315	     -7.12647202	     -1.69084318	      3.30121677	      0.50937570	      2.92180929	    -18.50426360	     -0.62123228	      3.47245954	     -5.82058845	     15.38137211	      0.81695988	      7.20633231	     -6.04546954	      0.51542596	    -10.37008318
      0.51216667	     -1.57731629	     -0.60483030	      6.21242929	     -0.70446305	      0.88924486	      0.29065867	     26.04837325	      0.29208688	     -6.84133648	     -2.20232733	      3.28157909	      0.37699730	      2.90439597	    -18.59713662	     -0.69537653	      3.62133255	     -6.26916546	     15.48062271	      0.78631974	      7.25972009	     -5.94938599	      0.54979158	    -10.30057908
      0.51633333	     -1.64956099	     -0.65870955	      6.24899997	     -0.69864408	      0.88789962	      0.29107337	     26.30431956	      0.40138426	     -6.52481726	     -2.77500313	      3.18782278	      0.09483547	      2.88876639	    -18.67452329	     -0.83325508	      3.63634723	     -6.77693313	     15.61697571	      0.91762268	      7.33366302	     -5.85639365	      0.65266807	    -10.27947865
      0.52050000	     -1.71669440	     -0.72296113	      6.26890098	     -0.69278551	      0.88658793	      0.29153417	     26.56131987	      0.53520857	     -6.20127926	     -3.42970710	      2.99513183	     -0.29087645	      2.87556466	    -18.72858352	     -0.98286611	      3.55823474	     -7.34449587	     15.75183921	      1.18332344	      7.44278388	     -5.75125974	      0.77729597	    -10.24190373
      0.52466667	     -1.76791988	     -0.81077753	      6.27668582	     -0.68687647	      0.88532387	      0.29204194	     26.80671076	      0.70417157	     -5.89972895	     -4.15684097	      2.74975421	     -0.69306965	      2.87044686	    -18.78377197	     -1.15865335	      3.45078343	     -7.95106400	     15.87158633	      1.46613108	      7.57410229	     -5.66648104	      0.92792404	    -10.19016363
      0.52883333	     -1.82056157	     -0.90962724	      6.27065052	     -0.68092610	      0.88408228	      0.29259040	     27.06655476	      0.89443425	     -5.60964991	     -4.96725246	      2.44730044	     -1.14051639	      2.87410777	    -18.82065642	     -1.34435755	      3.30528060	     -8.59786615	     15.96499006	      1.76929683	      7.73017384	     -5.56929658	      1.08853965	    -10.11744446
      0.53300000	     -1.85760553	     -1.01354534	      6.24695891	     -0.67493138	      0.88289528	      0.29318014	     27.31871227	      1.10229130	     -5.33103519	     -5.84340281	      2.07863752	     -1.62055116	      2.88845719	    -18.86287490	     -1.53417409	      3.12577229	     -9.27200101	     16.02575721	      2.09842303	      7.92441432	     -5.47661638	      1.26462721	    -10.01822905
      0.53716667	     -1.85485164	     -1.16802952	      6.23011774	     -0.66886591	      0.88180963	      0.29380975	     27.51181128	      1.37050826	     -5.10424179	     -6.72362061	      1.60180251	     -2.14239311	      2.94680835	    -18.90246280	     -1.79915365	      2.82007966	    -10.03194972	     16.08060434	      2.63269473	      8.39904900	     -5.45389607	      1.48278975	     -9.88697231
      0.54133333	     -1.91097014	     -1.28676425	      6.16053793	     -0.66278012	      0.88064854	      0.29449660	     27.82922787	      1.61150577	     -4.87124260	     -7.77001581	      1.20665076	     -2.54174046	      3.53112483	    -18.89478451	     -1.99366944	      2.56681082	    -10.76860643	     16.02448663	      2.92224510	     12.13445659	     -5.32833664	      1.67028384	     -9.85844005
      0.54550000	     -1.96363618	     -1.40989558	      6.09999990	     -0.65667960	      0.87955461	      0.29519007	     28.13216118	      1.86181771	     -4.61259357	     -8.82830610	      0.77783130	     -3.08598221	      3.52586041	    -18.89589129	     -2.18046509	      2.48488505	    -11.50453581	     15.94464550	      2.95558960	     12.18162231	     -5.23061161	      1.85525785	     -9.67028656
      0.54966667	     -2.01434897	     -1.54147508	      6.01472235	     -0.65053458	      0.87849837	      0.29593675	     28.44216671	      2.13312062	     -4.37041877	     -9.92592637	      0.27956193	     -3.62182511	      3.52769481	    -18.86170988	     -2.37912672	      2.27519122	    -12.32258869	     15.82454142	      3.17837758	     12.27314952	     -5.11629490	      2.05832424	     -9.48796972
      0.55383333	     -2.04578280	     -1.67983588	      5.92553932	     -0.64434526	      0.87752157	      0.29669539	     28.73718264	      2.41396892	     -4.15784165	    -11.06173638	     -0.20268599	     -4.13101702	      3.53711355	    -18.82578975	     -2.58737876	      2.04545626	    -13.18389595	     15.68487142	      3.42242355	     12.40908008	     -5.01271391	      2.27641136	     -9.30512278
